<svg xmlns="http://www.w3.org/2000/svg" width="1920" height="1080" viewBox="0 0 1920 1080" role="img" aria-labelledby="title">
  <title id="title">Synthetic archive save menu</title>
  <rect width="1920" height="1080" fill="#171916"/>
  <rect x="190" y="115" width="1540" height="850" rx="4" fill="#e8dfca"/>
  <rect x="244" y="168" width="12" height="92" fill="#a43e32"/>
  <g font-family="Georgia,serif" fill="#29251f">
    <text x="286" y="224" font-size="54" font-weight="700">ARCHIVE / SAVE</text>
    <text x="286" y="268" font-size="22" fill="#6c6254">Runtime slots · synthetic example</text>
  </g>
  <g font-family="system-ui,sans-serif">
    <g transform="translate(286 330)">
      <rect width="420" height="220" fill="#f4eddc" stroke="#8f826d"/>
      <rect x="20" y="20" width="380" height="126" fill="#30352f"/>
      <text x="20" y="182" font-size="22" fill="#29251f">SLOT 01 · 09:42</text>
    </g>
    <g transform="translate(750 330)">
      <rect width="420" height="220" fill="#f4eddc" stroke="#8f826d"/>
      <rect x="20" y="20" width="380" height="126" fill="#42483f"/>
      <text x="20" y="182" font-size="22" fill="#29251f">SLOT 02 · 08:15</text>
    </g>
    <g transform="translate(1214 330)">
      <rect width="420" height="220" fill="#f4eddc" stroke="#8f826d"/>
      <rect x="20" y="20" width="380" height="126" fill="#d8cfbb"/>
      <text x="20" y="182" font-size="22" fill="#6c6254">EMPTY SLOT</text>
    </g>
    <g transform="translate(286 584)">
      <rect width="420" height="220" fill="#f4eddc" stroke="#8f826d"/>
      <rect x="20" y="20" width="380" height="126" fill="#d8cfbb"/>
      <text x="20" y="182" font-size="22" fill="#6c6254">EMPTY SLOT</text>
    </g>
    <g transform="translate(750 584)">
      <rect width="420" height="220" fill="#f4eddc" stroke="#8f826d"/>
      <rect x="20" y="20" width="380" height="126" fill="#d8cfbb"/>
      <text x="20" y="182" font-size="22" fill="#6c6254">EMPTY SLOT</text>
    </g>
    <g transform="translate(1214 584)">
      <rect width="420" height="220" fill="#f4eddc" stroke="#8f826d"/>
      <rect x="20" y="20" width="380" height="126" fill="#d8cfbb"/>
      <text x="20" y="182" font-size="22" fill="#6c6254">EMPTY SLOT</text>
    </g>
    <text x="286" y="884" font-size="22" fill="#29251f">PREVIOUS    AUTO    QUICK    NEXT</text>
    <text x="1534" y="884" font-size="22" font-weight="700" fill="#a43e32">RETURN</text>
  </g>
</svg>
